<?xml version="1.0" encoding="UTF-8"?>
<svg width="800" height="600" viewBox="0 0 800 600" fill="none" xmlns="http://www.w3.org/2000/svg">
  <!-- Analytics Dashboard -->
  <rect x="300" y="100" width="400" height="300" rx="8" fill="#FFFFFF" stroke="#E6E9F4" stroke-width="2"/>
  <rect x="320" y="120" width="360" height="160" rx="4" fill="#F8F9FF"/>
  <path d="M320 200 L680 200" stroke="#E6E9F4" stroke-width="1"/>
  <path d="M340 160 L400 140 L460 180 L520 150 L580 170 L640 130" stroke="#0059b3" stroke-width="2" fill="none"/>
  
  <!-- Stats Cards -->
  <rect x="320" y="300" width="110" height="80" rx="4" fill="#F1F4FF"/>
  <rect x="445" y="300" width="110" height="80" rx="4" fill="#F1F4FF"/>
  <rect x="570" y="300" width="110" height="80" rx="4" fill="#F1F4FF"/>
  
  <!-- Floating Elements -->
  <circle cx="200" cy="150" r="40" fill="#0059b3" opacity="0.1"/>
  <circle cx="700" cy="400" r="30" fill="#0059b3" opacity="0.1"/>
  <rect x="150" y="300" width="60" height="60" rx="8" fill="#0059b3" opacity="0.1"/>
  
  <!-- Small Icons -->
  <rect x="650" y="50" width="20" height="20" rx="4" fill="#0059b3"/>
  <circle cx="180" cy="450" r="15" fill="#0059b3"/>
  <path d="M720 250 L740 270 L720 290" stroke="#0059b3" stroke-width="2" fill="none"/>
</svg>
