<?xml version="1.0" encoding="UTF-8"?>
<svg width="400" height="100" viewBox="0 0 400 100" fill="none" xmlns="http://www.w3.org/2000/svg">
  <!-- Big Data Icon -->
  <g transform="translate(0,0)">
    <rect x="10" y="10" width="80" height="80" rx="8" fill="#E6F3F5"/>
    <path d="M30 35h40M30 50h40M30 65h40" stroke="#4A7BFF" stroke-width="3" stroke-linecap="round"/>
    <path d="M45 25l10 50M35 45l40-20" stroke="#4A7BFF" stroke-width="2" opacity="0.5"/>
  </g>
  
  <!-- Machine Learning Icon -->
  <g transform="translate(100,0)">
    <rect x="10" y="10" width="80" height="80" rx="8" fill="#E6F3F5"/>
    <circle cx="50" cy="50" r="20" stroke="#4A7BFF" stroke-width="2" fill="none"/>
    <path d="M40 50l5 5 15-15" stroke="#4A7BFF" stroke-width="3" stroke-linecap="round" stroke-linejoin="round"/>
  </g>
  
  <!-- Analytical AI Icon -->
  <g transform="translate(200,0)">
    <rect x="10" y="10" width="80" height="80" rx="8" fill="#E6F3F5"/>
    <path d="M35 65l10-20 10 10 20-30" stroke="#4A7BFF" stroke-width="2"/>
    <circle cx="45" cy="45" r="4" fill="#4A7BFF"/>
    <circle cx="55" cy="55" r="4" fill="#4A7BFF"/>
    <circle cx="75" cy="25" r="4" fill="#4A7BFF"/>
  </g>
  
  <!-- Computer Vision Icon -->
  <g transform="translate(300,0)">
    <rect x="10" y="10" width="80" height="80" rx="8" fill="#E6F3F5"/>
    <circle cx="50" cy="50" r="15" stroke="#4A7BFF" stroke-width="2" fill="none"/>
    <path d="M50 35v30M35 50h30" stroke="#4A7BFF" stroke-width="2"/>
    <circle cx="50" cy="50" r="5" fill="#4A7BFF"/>
  </g>
</svg>
